<?xml version="1.0" encoding="iso-8859-1"?>
<!-- Generator: Adobe Illustrator 19.0.0, SVG Export Plug-In . SVG Version: 6.00 Build 0)  -->
<svg xmlns="http://www.w3.org/2000/svg" xmlns:xlink="http://www.w3.org/1999/xlink" version="1.1" id="Layer_1" x="0px" y="0px" viewBox="0 0 512.002 512.002" style="enable-background:new 0 0 512.002 512.002;" xml:space="preserve">
<g>
	<path style="fill:#949493;" d="M494.341,372.809c-32.43-62.915-80.5-77.849-119.822-57.525l-4.772,2.828   c-17.673,0-25.095-8.836-33.932-26.509L275.375,158.26l-23.682,53.814l108.688,247.42c33.137,50.633,75.375,62.739,111.604,44.182   C511.307,483.441,526.948,435.724,494.341,372.809z M455.814,472.307c-21.738,11.222-53.814-7.864-71.752-42.503   s-14.845-71.928,6.892-83.151c21.738-11.222,53.725,7.864,71.663,42.592S477.464,461.173,455.814,472.307z"/>
	<path style="fill:#949493;" d="M260.088,123.71l-23.947,53.019l0,0L185.597,61.855C176.76,35.346,193.549,0,203.269,0   l55.935,123.71H260.088z"/>
</g>
<path style="fill:#C7CAC7;" d="M308.776,0l-52.4,114.873l-23.947,53.019l-56.2,123.71c-8.836,17.673-16.259,26.509-33.932,26.509  l-4.948-2.828c-39.322-20.324-87.392-5.39-119.822,57.525S0.739,483.441,40.061,503.676c36.229,18.733,78.467,6.627,111.604-44.182  l104.093-237.258l23.947-54.344l46.745-106.037C335.286,35.346,318.585,0,308.776,0z M127.983,429.804  c-17.673,34.639-50.014,53.725-71.663,42.503s-24.83-48.159-6.892-83.504s50.014-53.725,71.663-42.592  S145.833,395.076,127.983,429.804z"/>
<g>
</g>
<g>
</g>
<g>
</g>
<g>
</g>
<g>
</g>
<g>
</g>
<g>
</g>
<g>
</g>
<g>
</g>
<g>
</g>
<g>
</g>
<g>
</g>
<g>
</g>
<g>
</g>
<g>
</g>
</svg>
